<?xml version="1.0" encoding="UTF-8"?>
<!DOCTYPE svg PUBLIC "-//W3C//DTD SVG 1.1//EN" "http://www.w3.org/Graphics/SVG/1.1/DTD/svg11.dtd">
<svg xmlns="http://www.w3.org/2000/svg" version="1.1" width="634px" height="480px" style="shape-rendering:geometricPrecision; text-rendering:geometricPrecision; image-rendering:optimizeQuality; fill-rule:evenodd; clip-rule:evenodd" xmlns:xlink="http://www.w3.org/1999/xlink">
<defs>
    <linearGradient id="brandGradient" x1="0" y1="0" x2="0" y2="1">
      <stop offset="0%" stop-color="hsl(262.1,83.3%,57.8%)" />
      <stop offset="100%" stop-color="hsl(217.2,91.2%,59.8%)" />
    </linearGradient>
  </defs>
<g><path style="opacity:1" fill="url(#brandGradient)" d="M 316.5,1.5 C 324.136,-0.0312367 329.136,2.8021 331.5,10C 344.273,11.3527 350.94,18.3527 351.5,31C 350.86,39.1574 350.36,47.324 350,55.5C 349.236,62.1581 347.403,68.4914 344.5,74.5C 345.661,79.6349 346.661,84.8016 347.5,90C 346.452,92.7623 345.119,95.429 343.5,98C 348.062,104.581 353.729,109.581 360.5,113C 361.68,111.104 363.18,109.604 365,108.5C 375.553,112.693 380.886,120.36 381,131.5C 377.418,139.003 373.085,146.003 368,152.5C 367.333,155.833 367.333,159.167 368,162.5C 371.852,179.389 376.518,196.056 382,212.5C 387.919,244.598 391.586,276.931 393,309.5C 396.858,325.074 401.525,340.407 407,355.5C 410.334,372.172 413.667,388.839 417,405.5C 417.333,412.833 417.667,420.167 418,427.5C 419.597,430.791 421.097,434.125 422.5,437.5C 421.407,441.108 421.24,444.775 422,448.5C 424.047,454.304 425.88,460.138 427.5,466C 425.393,474.9 419.727,478.566 410.5,477C 408.481,476.55 406.648,475.717 405,474.5C 404.362,469.075 404.862,463.741 406.5,458.5C 404.041,450.098 404.374,441.764 407.5,433.5C 400.501,415.165 392.667,397.165 384,379.5C 381.844,371.208 379.844,362.875 378,354.5C 375,348.833 372,343.167 369,337.5C 363.474,314.256 354.808,292.256 343,271.5C 341.53,266.757 339.864,262.091 338,257.5C 335.633,254.068 332.966,253.735 330,256.5C 325.084,271.002 318.084,284.335 309,296.5C 301.948,310.328 295.281,324.328 289,338.5C 284.667,344.167 280.333,349.833 276,355.5C 271.725,364.382 267.725,373.382 264,382.5C 257.242,391.681 250.242,400.681 243,409.5C 235.33,419.009 230.83,429.842 229.5,442C 229.688,444.355 230.021,446.688 230.5,449C 229.005,453.823 226.838,458.323 224,462.5C 224.535,466.841 224.368,471.175 223.5,475.5C 209.993,478.493 204.493,473.16 207,459.5C 215.333,436.167 223.667,412.833 232,389.5C 244.276,361.282 256.276,332.949 268,304.5C 271.215,289.209 274.215,273.875 277,258.5C 282.346,240.794 288.679,223.461 296,206.5C 301.561,199.928 305.894,192.595 309,184.5C 310.618,179.002 309.118,174.669 304.5,171.5C 297.665,175.416 290.998,179.583 284.5,184C 280.906,186.247 277.739,185.747 275,182.5C 273.109,178.389 272.109,174.056 272,169.5C 271.801,158.161 271.801,146.827 272,135.5C 270.754,130.017 269.588,124.517 268.5,119C 269.635,116.518 270.801,114.018 272,111.5C 273.037,93.0192 277.37,75.3525 285,58.5C 285.333,53.8333 285.667,49.1667 286,44.5C 289.596,38.5661 290.596,32.2327 289,25.5C 290.561,22.2167 292.727,19.3834 295.5,17C 302.924,12.3003 309.924,7.13364 316.5,1.5 Z"/></g>
</svg>
